<svg xmlns="http://www.w3.org/2000/svg" width="148.492" height="176.777" viewBox="0 0 148.492 176.777">
  <g id="グループ_10" data-name="グループ 10" transform="translate(-386.254 -580.112)">
    <g id="グループ_9" data-name="グループ 9" transform="translate(-303.882 855.176) rotate(-45)">
      <rect id="長方形_1" data-name="長方形 1" width="100" height="10" transform="translate(635 346)" fill="#3c556e"/>
      <rect id="長方形_3" data-name="長方形 3" width="65" height="10" transform="translate(700 446) rotate(180)" fill="#3c556e"/>
      <rect id="長方形_4" data-name="長方形 4" width="50" height="10" transform="translate(735 396) rotate(90)" fill="#3c556e"/>
      <rect id="長方形_5" data-name="長方形 5" width="50" height="10" transform="translate(735 406) rotate(180)" fill="#3c556e"/>
      <rect id="長方形_8" data-name="長方形 8" width="100" height="10" transform="translate(645 346) rotate(90)" fill="#3c556e"/>
      <rect id="長方形_5-2" data-name="長方形 5" width="105" height="10" transform="translate(610 471) rotate(-90)" fill="#3c556e"/>
      <rect id="長方形_7" data-name="長方形 7" width="105" height="10" transform="translate(715 471) rotate(180)" fill="#3c556e"/>
      <rect id="長方形_10" data-name="長方形 10" width="60" height="10" transform="translate(655 366)" fill="#3c556e"/>
      <rect id="長方形_11" data-name="長方形 11" width="60" height="10" transform="translate(665 366) rotate(90)" fill="#3c556e"/>
      <rect id="長方形_12" data-name="長方形 12" width="60" height="10" transform="translate(655 416)" fill="#3c556e"/>
      <rect id="長方形_13" data-name="長方形 13" width="55" height="10" transform="translate(715 416) rotate(90)" fill="#3c556e"/>
      <rect id="長方形_14" data-name="長方形 14" width="15" height="10" transform="translate(735 446) rotate(180)" fill="#3c556e"/>
      <rect id="長方形_15" data-name="長方形 15" width="45" height="10" transform="translate(735 346) rotate(90)" fill="#3c556e"/>
    </g>
  </g>
</svg>
